# xmcd
#
# Track frame offsets:
# 150
# 10940
# 21456
# 34574
# 43535
# 58350
# 71043
# 82192
# 92480
# 108362
# 120624
# 131701
# 142744
# 156888
#
# Disc length: 2207 seconds
#
# Revision: 1
# Processed by: cddbd v1.5.1PL0 Copyright (c) Steve Scherf et al.
# Submitted via: CedeCatalogueitor 2.6.0.6 http://personales.ya.com/cdcatalogueitor
#
DISCID=bd089d0e
DTITLE=Yulie Ruth Y Las Ruedas Del Sur - El Country Vino Para Quedarse
DYEAR=2004
DGENRE=
TTITLE0=Amor A Simple Vista ( O Algo Asi)
TTITLE1=El Country Vino Para Quedarse
TTITLE2=Juntos A La Par
TTITLE3=Aca En Bernal
TTITLE4=Alegrias Del Pueblo
TTITLE5=Listo Para Ser Tu Hombre
TTITLE6=Fiebre Galopante De Swing
TTITLE7=En Buena Ley
TTITLE8=Rio Revuelto
TTITLE9=Gracias Willie
TTITLE10=Un Cielo Claro Y Vos
TTITLE11=Hombre De Una Sola Mujer
TTITLE12=Muevemontañas
TTITLE13=Trato Hecho
EXTD=
EXTT0=
EXTT1=
EXTT2=
EXTT3=
EXTT4=
EXTT5=
EXTT6=
EXTT7=
EXTT8=
EXTT9=
EXTT10=
EXTT11=
EXTT12=
EXTT13=
PLAYORDER=
